<?xml version="1.0" standalone="no"?>
<!DOCTYPE svg PUBLIC "-//W3C//DTD SVG 20010904//EN"
 "http://www.w3.org/TR/2001/REC-SVG-20010904/DTD/svg10.dtd">
<svg version="1.0" xmlns="http://www.w3.org/2000/svg"
 width="700.000000pt" height="700.000000pt" viewBox="0 0 700.000000 700.000000"
 preserveAspectRatio="xMidYMid meet">
<metadata>
Created by potrace 1.11, written by Peter Selinger 2001-2013
</metadata>
<g transform="translate(0.000000,700.000000) scale(0.100000,-0.100000)"
fill="#000000" stroke="none">
<path d="M3079 6882 c-206 -54 -350 -270 -310 -464 37 -181 182 -327 356 -359
33 -6 79 -8 103 -5 l42 6 0 -60 c0 -145 49 -262 155 -366 79 -78 145 -115 252
-140 137 -32 304 8 420 102 23 19 44 34 47 34 3 0 6 -28 6 -63 0 -283 240
-517 530 -517 123 0 263 63 369 167 l74 73 66 -33 c59 -29 75 -32 151 -32 72
1 94 5 145 28 149 69 231 239 191 396 l-16 63 50 54 c99 109 158 279 146 421
-13 147 -71 270 -177 375 -185 184 -479 218 -703 83 l-59 -35 -15 22 c-8 13
-42 50 -76 84 -76 75 -177 127 -277 144 -138 23 -308 -21 -383 -99 l-30 -31
-62 60 c-102 98 -204 129 -316 96 -70 -20 -149 -88 -175 -151 -16 -41 -33 -59
-33 -36 0 20 -101 118 -147 144 -104 56 -209 69 -324 39z"/>
<path d="M166 5119 c-60 -14 -103 -46 -134 -97 -22 -38 -27 -59 -27 -112 0
-79 29 -136 88 -177 l40 -28 264 -3 263 -3 0 -1484 0 -1485 -250 0 c-272 0
-291 -3 -343 -56 -47 -47 -61 -83 -61 -154 0 -112 57 -185 164 -209 60 -14
5767 -15 5895 -1 129 14 236 44 350 100 291 141 493 400 561 715 48 222 18
479 -78 670 -97 192 -271 366 -463 462 -62 32 -192 76 -258 88 l-37 7 0 622
c0 341 -4 649 -9 683 -25 168 -145 294 -309 324 -150 28 -317 -62 -390 -210
l-27 -56 -5 -680 -5 -680 -662 -3 -663 -2 0 348 c0 191 -5 384 -10 430 -21
166 -96 363 -191 503 -56 83 -176 208 -258 268 -130 97 -279 165 -446 204 -89
21 -104 21 -1525 23 -869 2 -1450 -1 -1474 -7z m2934 -448 c124 -38 206 -86
301 -181 69 -68 94 -102 128 -170 74 -151 74 -150 78 -582 l4 -388 -1250 0
-1251 0 0 675 0 676 958 -3 957 -4 75 -23z"/>
<path d="M1740 1083 c-253 -25 -440 -233 -440 -488 0 -143 61 -282 163 -371
62 -54 175 -105 261 -117 336 -48 627 277 541 606 -61 235 -287 394 -525 370z"/>
<path d="M3041 1080 c-398 -58 -558 -545 -272 -831 287 -287 770 -126 831 277
49 319 -234 600 -559 554z"/>
<path d="M4374 1080 c-202 -30 -357 -168 -409 -365 -72 -279 113 -559 403
-607 237 -40 486 123 546 358 66 256 -80 523 -324 594 -81 23 -150 30 -216 20z"/>
<path d="M5690 1079 c-201 -26 -381 -208 -410 -414 -45 -326 240 -609 561
-556 253 42 440 279 415 527 -29 287 -275 480 -566 443z"/>
</g>
</svg>
